HIERARCHY
ROOT Hips
{
	OFFSET -0.001795 -0.223333 0.028219
	CHANNELS 6 Xposition Yposition Zposition Zrotation Yrotation Xrotation
	JOINT LeftUpLeg
	{
		OFFSET 0.069520 -0.091406 -0.006815
		CHANNELS 3 Zrotation Yrotation Xrotation
		JOINT LeftLeg
		{
			OFFSET 0.034277 -0.375199 -0.004496
			CHANNELS 3 Zrotation Yrotation Xrotation
			JOINT LeftFoot
			{
				OFFSET -0.013596 -0.397961 -0.043693
				CHANNELS 3 Zrotation Yrotation Xrotation
				JOINT LeftToe
				{
					OFFSET 0.026358 -0.055791 0.119288
					CHANNELS 3 Zrotation Yrotation Xrotation
					End Site
					{
						OFFSET 0.000000 0.000000 0.000000
					}
				}
			}
		}
	}
	JOINT RightUpLeg
	{
		OFFSET -0.067670 -0.090522 -0.004320
		CHANNELS 3 Zrotation Yrotation Xrotation
		JOINT RightLeg
		{
			OFFSET -0.038290 -0.382569 -0.008850
			CHANNELS 3 Zrotation Yrotation Xrotation
			JOINT RightFoot
			{
				OFFSET 0.015774 -0.398415 -0.042312
				CHANNELS 3 Zrotation Yrotation Xrotation
				JOINT RightToe
				{
					OFFSET -0.025372 -0.048144 0.123348
					CHANNELS 3 Zrotation Yrotation Xrotation
					End Site
					{
						OFFSET 0.000000 0.000000 0.000000
					}
				}
			}
		}
	}
	JOINT Spine
	{
		OFFSET -0.002533 0.108963 -0.026696
		CHANNELS 3 Zrotation Yrotation Xrotation
		JOINT Spine1
		{
			OFFSET 0.005487 0.135180 0.001092
			CHANNELS 3 Zrotation Yrotation Xrotation
			JOINT Spine2
			{
				OFFSET 0.001457 0.052922 0.025425
				CHANNELS 3 Zrotation Yrotation Xrotation
				JOINT Neck
				{
					OFFSET -0.002778 0.213870 -0.042857
					CHANNELS 3 Zrotation Yrotation Xrotation
					JOINT Head
					{
						OFFSET 0.005152 0.064970 0.051349
						CHANNELS 3 Zrotation Yrotation Xrotation
						End Site
						{
							OFFSET 0.000000 0.000000 0.000000
						}
					}
				}
				JOINT LeftShoulder
				{
					OFFSET 0.078845 0.121749 -0.034090
					CHANNELS 3 Zrotation Yrotation Xrotation
					JOINT LeftArm
					{
						OFFSET 0.090977 0.030469 -0.008868
						CHANNELS 3 Zrotation Yrotation Xrotation
						JOINT LeftForeArm
						{
							OFFSET 0.259612 -0.012772 -0.027456
							CHANNELS 3 Zrotation Yrotation Xrotation
							JOINT LeftHand
							{
								OFFSET 0.249234 0.008986 -0.001171
								CHANNELS 3 Zrotation Yrotation Xrotation
								End Site
								{
									OFFSET 0.000000 0.000000 0.000000
								}
							}
						}
					}
				}
				JOINT RightShoulder
				{
					OFFSET -0.081759 0.118833 -0.038615
					CHANNELS 3 Zrotation Yrotation Xrotation
					JOINT RightArm
					{
						OFFSET -0.096012 0.032551 -0.009143
						CHANNELS 3 Zrotation Yrotation Xrotation
						JOINT RightForeArm
						{
							OFFSET -0.253742 -0.013329 -0.021401
							CHANNELS 3 Zrotation Yrotation Xrotation
							JOINT RightHand
							{
								OFFSET -0.255298 0.007772 -0.005559
								CHANNELS 3 Zrotation Yrotation Xrotation
								End Site
								{
									OFFSET 0.000000 0.000000 0.000000
								}
							}
						}
					}
				}
			}
		}
	}
}
MOTION
Frames: 13
Frame Time: 0.050000
-0.390142 0.813573 0.687091 -7.465571 0.003882 -4.409072 3.953936 -2.182893 -36.493912 -4.864175 0.684027 24.424191 1.615225 6.188801 7.968599 0.000000 0.000000 0.000000 5.538511 -1.043951 6.342661 14.780669 -13.109494 87.044698 0.677143 -5.052853 15.996368 0.000000 0.000000 0.000000 -34.801042 10.561002 39.587271 -17.359595 1.724265 -47.466759 1.720366 22.557774 31.100996 10.237208 -6.151367 -6.507313 0.000000 0.000000 0.000000 -39.207711 -15.634611 -2.271458 -2.661163 -11.217357 -0.461286 42.291898 -55.096368 -21.185681 0.000000 0.000000 0.000000 25.737216 15.143994 14.986120 26.156508 28.413373 -0.800948 7.594651 36.584662 3.920185 0.000000 0.000000 0.000000
-0.417798 0.831082 0.729576 -9.143449 1.375433 -6.765192 6.258888 -1.400182 -32.009633 -4.432444 0.401816 23.358673 3.165355 10.131757 12.527669 0.000000 0.000000 0.000000 5.445632 -0.049610 0.138049 15.874823 -17.583098 93.111206 -1.279697 -9.461678 19.852433 0.000000 0.000000 0.000000 -37.878123 10.033217 36.819679 -14.535597 1.509712 -48.334574 3.718059 25.298453 32.702501 9.641581 -7.383873 -1.559825 0.000000 0.000000 0.000000 -35.012920 -16.203810 -2.078035 -3.456131 -10.288865 -0.428399 37.419831 -50.954770 -17.654492 0.000000 0.000000 0.000000 29.475900 17.386677 18.402439 21.102522 30.487656 -1.407599 1.609228 29.778737 1.121611 0.000000 0.000000 0.000000
-0.446024 0.847847 0.767375 -11.947514 2.865742 -10.545657 9.620074 -0.471926 -26.654242 -3.575269 -0.045808 22.978223 5.015044 14.126048 17.825061 0.000000 0.000000 0.000000 5.055947 0.901409 -5.827548 17.412525 -21.494647 92.612625 -2.685411 -11.913706 20.355027 0.000000 0.000000 0.000000 -39.769554 8.946184 34.942467 -10.927329 1.101935 -51.039649 7.757316 26.263679 37.877419 6.444896 -7.507341 6.973694 0.000000 0.000000 0.000000 -33.484917 -18.129941 -0.551332 -1.605520 -6.814351 -0.296612 28.566447 -45.557954 -11.957062 0.000000 0.000000 0.000000 32.310415 19.095535 20.987404 15.344533 33.425356 -2.349586 -2.844038 28.833057 -0.228305 0.000000 0.000000 0.000000
-0.476350 0.862888 0.799731 -15.090175 3.722652 -15.114402 14.088987 0.426979 -22.509440 -2.668909 -0.512627 23.399415 9.023865 20.376885 36.259447 0.000000 0.000000 0.000000 5.431385 1.500775 -9.273833 18.872884 -23.026418 87.011527 -6.177548 -17.316915 21.461352 0.000000 0.000000 0.000000 -42.803328 7.338722 30.868121 -1.330909 0.551034 -42.752091 2.964972 32.357050 32.206797 5.887182 -7.815325 8.513207 0.000000 0.000000 0.000000 -26.584334 -18.501559 -1.704202 -4.580800 -6.267164 -0.270257 25.668670 -39.255149 -9.767416 0.000000 0.000000 0.000000 34.112722 19.909723 24.262292 13.338602 36.212157 -2.547341 -5.943666 25.857003 -1.001304 0.000000 0.000000 0.000000
-0.509498 0.870993 0.825208 -18.900793 5.274591 -18.776410 18.037048 0.910265 -21.298249 -2.170401 -1.056129 25.687828 13.349344 24.497796 39.409108 0.000000 0.000000 0.000000 6.826356 2.042560 -11.507928 20.284190 -22.969838 76.326171 -7.620418 -19.222204 19.339564 0.000000 0.000000 0.000000 -42.042411 5.268833 28.426320 -3.293148 1.219531 -33.283889 1.695783 28.267699 23.096149 -0.245619 -4.311839 15.411598 0.000000 0.000000 0.000000 -22.845634 -19.833682 0.808032 -5.344325 -4.945587 -0.273951 19.384911 -35.464182 -6.550129 0.000000 0.000000 0.000000 33.577470 18.598044 21.975587 16.421247 37.024008 -1.314847 -6.166311 23.580734 -0.833056 0.000000 0.000000 0.000000
-0.546838 0.871121 0.842470 -23.602589 8.020097 -23.087228 20.864846 0.903479 -20.990581 0.059538 -2.600077 29.057058 8.687614 20.728477 27.284314 0.000000 0.000000 0.000000 11.566653 2.750260 -12.039944 21.599029 -22.916317 64.255742 -10.216958 -22.817200 18.735845 0.000000 0.000000 0.000000 -41.967859 3.800903 28.426012 6.005933 -0.816896 -33.397354 -2.757296 30.076294 28.198299 -1.233481 0.713820 8.367915 0.000000 0.000000 0.000000 -16.734555 -19.051128 1.114476 -7.723417 -8.192750 -0.377639 20.397904 -30.558739 -6.706887 0.000000 0.000000 0.000000 29.658124 20.143992 22.362660 19.937198 35.696845 -0.706506 -9.699620 23.348597 -1.571482 0.000000 0.000000 0.000000
-0.584530 0.863937 0.852372 -27.085077 11.496895 -25.089438 20.436871 0.419079 -24.721036 0.786401 -4.093631 33.578261 7.276635 18.117823 14.892022 0.000000 0.000000 0.000000 17.875374 3.555696 -12.908671 20.354689 -20.780539 54.806846 -11.964776 -25.949762 12.521639 0.000000 0.000000 0.000000 -43.986697 2.859433 28.665896 8.621282 -1.730085 -26.703587 -3.719426 29.375418 25.722957 0.622596 3.571550 -5.909771 0.000000 0.000000 0.000000 -11.062963 -19.614035 2.480943 -9.816495 -16.190255 -0.354605 17.759547 -28.195617 -5.735142 0.000000 0.000000 0.000000 21.240076 15.932734 16.234392 28.319825 31.583136 1.024658 -9.984322 28.412063 -1.536950 0.000000 0.000000 0.000000
-0.619690 0.856508 0.855003 -29.177090 11.423425 -27.034660 21.241554 0.454407 -25.576578 3.816836 -6.322916 36.879299 0.549885 5.502762 7.701397 0.000000 0.000000 0.000000 23.757866 4.118387 -13.224647 19.572985 -18.424143 49.496029 -12.726047 -27.134729 13.139530 0.000000 0.000000 0.000000 -45.258005 2.390142 28.080520 12.044304 -2.840941 -25.703626 -4.193674 31.828052 27.672373 1.993514 3.746714 -8.819060 0.000000 0.000000 0.000000 -9.095466 -22.975074 3.848644 -10.032036 -18.167670 -0.410952 18.383140 -24.553692 -5.360918 0.000000 0.000000 0.000000 17.523674 14.242819 13.990031 31.914338 28.707227 1.352954 -8.085654 30.454408 -0.987657 0.000000 0.000000 0.000000
-0.649208 0.849799 0.851798 -30.825874 12.556648 -27.666442 21.593615 0.231136 -27.416394 4.459073 -7.241478 38.377817 -2.381615 -1.291659 5.396755 0.000000 0.000000 0.000000 27.697731 4.184308 -13.210444 18.640936 -16.939319 45.994542 -12.580071 -26.326865 15.777993 0.000000 0.000000 0.000000 -42.828130 2.129280 29.314055 7.667248 -1.368127 -26.641329 -1.113862 29.113344 28.362422 2.015038 4.499315 -13.648088 0.000000 0.000000 0.000000 -8.670241 -24.860281 4.845667 -10.921999 -20.230449 -0.399268 16.478338 -24.481215 -4.669086 0.000000 0.000000 0.000000 13.460503 12.206777 10.644685 36.668254 22.262314 0.680800 -1.021991 33.483159 1.111937 0.000000 0.000000 0.000000
-0.671917 0.854242 0.842975 -30.196879 12.707353 -27.319104 21.384115 0.206217 -27.939636 5.136495 -7.140879 36.947574 -4.564559 -3.165814 8.624912 0.000000 0.000000 0.000000 29.051790 4.517712 -14.328889 16.632538 -15.442535 46.426802 -11.972073 -24.372636 21.351899 0.000000 0.000000 0.000000 -43.201023 2.526442 30.399596 7.205219 -1.207658 -27.057791 -1.134325 29.523490 26.665300 2.612995 4.576225 -16.384334 0.000000 0.000000 0.000000 -5.957977 -23.617029 4.893895 -15.552327 -22.144297 -0.212405 16.528145 -26.386657 -5.267876 0.000000 0.000000 0.000000 12.950273 9.306467 8.987761 43.849525 22.793519 2.085482 -1.633990 30.892785 1.056589 0.000000 0.000000 0.000000
-0.685842 0.865154 0.829663 -29.161685 14.795213 -26.630165 20.385682 -0.148085 -27.921221 4.511721 -6.608026 35.461519 -4.762338 -3.143715 8.984378 0.000000 0.000000 0.000000 29.755485 4.401130 -14.358686 15.258369 -13.596880 43.029445 -10.851070 -22.170475 22.824194 0.000000 0.000000 0.000000 -42.293172 2.559050 32.037177 7.214823 -1.090815 -28.439382 -1.620639 30.740313 25.159278 4.577200 3.522099 -17.142879 0.000000 0.000000 0.000000 -6.127758 -24.437654 4.804870 -17.952974 -20.072426 0.025898 16.782394 -28.208679 -5.937730 0.000000 0.000000 0.000000 15.951821 7.011722 9.542746 48.327691 20.330364 0.963379 -1.999140 31.231808 1.303271 0.000000 0.000000 0.000000
-0.693027 0.882794 0.814140 -26.565207 16.237996 -24.312118 19.380277 -0.338405 -27.558073 3.028451 -6.418116 37.337493 -2.551278 0.332199 8.092093 0.000000 0.000000 0.000000 29.858436 3.901577 -13.088588 12.014687 -9.964437 38.738703 -9.657122 -20.232451 21.031102 0.000000 0.000000 0.000000 -42.260362 2.763882 32.268364 8.524929 -1.265521 -30.680767 -3.579403 30.558404 24.916995 5.579309 2.726490 -16.415283 0.000000 0.000000 0.000000 -6.655679 -20.812999 3.381918 -21.108969 -17.369945 -0.059145 16.408095 -31.522587 -6.720155 0.000000 0.000000 0.000000 23.395954 6.946122 13.193919 44.842302 21.249865 -1.017038 0.263276 28.838338 1.392390 0.000000 0.000000 0.000000
-0.695137 0.899172 0.796398 -23.318544 18.556914 -22.519738 16.690988 -0.788222 -26.368455 0.803810 -7.392157 44.284833 2.187211 6.158029 3.035764 0.000000 0.000000 0.000000 27.564836 3.230416 -11.392196 10.657236 -7.663881 32.672819 -11.027186 -22.164807 20.325574 0.000000 0.000000 0.000000 -41.709572 2.903479 33.603208 6.767037 -0.694096 -32.651078 -2.940906 29.397169 25.995676 5.274094 2.936959 -16.474233 0.000000 0.000000 0.000000 -8.343996 -20.487715 2.863970 -21.524316 -14.864056 -0.190341 17.786953 -31.911093 -7.164103 0.000000 0.000000 0.000000 27.321415 6.088693 14.437229 45.628001 19.571045 -2.701113 1.239104 28.493883 1.760342 0.000000 0.000000 0.000000
